<svg xmlns="http://www.w3.org/2000/svg" xmlns:xlink="http://www.w3.org/1999/xlink" width="880" height="660" viewBox="0 0 880 660" style="background:#fff">
  <defs>
    <radialGradient id="delta-camp--logo-pink-vertical--outlines-b" cx="73.46%" cy="-24.309%" r="348.494%" fx="73.46%" fy="-24.309%" gradientTransform="matrix(-.00468 .99983 -.25379 -.01854 .676 -.982)">
      <stop offset="0%" stop-color="#FFF" stop-opacity=".289"/>
      <stop offset="100%" stop-color="#FFF" stop-opacity="0"/>
    </radialGradient>
    <path id="delta-camp--logo-pink-vertical--outlines-a" d="M87,432.28 L87,345.88 L117.096,345.88 C142.584,345.88 162.312,364.6 162.312,388.936 C162.312,411.976 144.744,432.28 117.096,432.28 L87,432.28 Z M108.168,412.984 L116.664,412.984 C130.2,412.984 140.568,403.48 140.568,388.936 C140.568,375.544 131.496,365.032 116.664,365.032 L108.168,365.032 L108.168,412.984 Z M176.712,432.28 L176.712,345.88 L233.88,345.88 L233.88,364.6 L197.88,364.6 L197.88,380.152 L231.144,380.152 L231.144,398.584 L197.88,398.584 L197.88,414.136 L235.464,414.136 L235.464,432.28 L176.712,432.28 Z M245.688,432.28 L245.688,345.88 L266.856,345.88 L266.856,414.136 L304.44,414.136 L304.44,432.28 L245.688,432.28 Z M318.408,432.28 L318.408,364.6 L299.112,364.6 L299.112,345.88 L359.304,345.88 L359.304,364.6 L339.72,364.6 L339.72,432.28 L318.408,432.28 Z M351.528,432.28 L393.576,343 L397.32,343 L439.656,432.28 L416.904,432.28 L412.584,423.352 L378.456,423.352 L374.28,432.28 L351.528,432.28 Z M385.08,408.232 L405.384,408.232 L395.448,386.344 L395.16,386.344 L385.08,408.232 Z"/>
    <radialGradient id="delta-camp--logo-pink-vertical--outlines-d" cx="38.677%" cy="115.857%" r="174.971%" fx="38.677%" fy="115.857%" gradientTransform="scale(1 .94853) rotate(-21.601 .552 1.19)">
      <stop offset="0%" stop-color="#FFF" stop-opacity=".242"/>
      <stop offset="100%" stop-color="#FFF" stop-opacity="0"/>
    </radialGradient>
    <path id="delta-camp--logo-pink-vertical--outlines-c" d="M358,285.718638 L410.013697,173.375448 L423.172409,157 L487,293 L379.832119,293 L358,285.718638 Z M390,265 L442,265 L416.569343,206 L390,265 Z"/>
  </defs>
  <g fill="none" fill-rule="evenodd">
    <use fill="#CA12BE" xlink:href="#delta-camp--logo-pink-vertical--outlines-a"/>
    <use fill="url(#delta-camp--logo-pink-vertical--outlines-b)" xlink:href="#delta-camp--logo-pink-vertical--outlines-a"/>
    <use fill="#CA12BE" xlink:href="#delta-camp--logo-pink-vertical--outlines-c"/>
    <use fill="url(#delta-camp--logo-pink-vertical--outlines-d)" xlink:href="#delta-camp--logo-pink-vertical--outlines-c"/>
    <path fill="#CA12BE" d="M439.92,387.08 C439.92,361.304 459.36,341 486.72,341 C503.136,341 514.512,347.192 523.728,356.84 L509.184,370.664 C503.136,364.76 495.36,361.016 486.72,361.016 C471.312,361.016 461.376,372.536 461.376,387.08 C461.376,401.624 471.312,413.144 486.72,413.144 C495.36,413.144 503.136,409.4 509.184,403.496 L523.296,417.32 C514.656,426.392 502.704,433.16 486.72,433.16 C459.36,433.16 439.92,412.856 439.92,387.08 Z M445.248,387.08 C445.248,410.552 462.672,429.128 486.72,429.128 C499.392,429.128 508.896,425.096 516.96,417.608 L508.752,409.256 C503.568,413.864 495.36,417.176 486.72,417.176 C468.144,417.176 455.904,403.928 455.904,387.08 C455.904,370.232 468.144,356.984 486.72,356.984 C494.928,356.984 502.848,360.008 509.04,364.76 L517.248,356.84 C509.616,349.064 499.68,345.032 486.72,345.032 C462.672,345.032 445.248,363.608 445.248,387.08 Z M526.464,430.28 L568.512,341 L572.256,341 L614.592,430.28 L591.84,430.28 L587.52,421.352 L553.392,421.352 L549.216,430.28 L526.464,430.28 Z M533.952,426.248 L545.328,426.248 L569.52,374.12 L571.536,374.12 L595.44,426.248 L607.104,426.248 L570.384,348.776 L533.952,426.248 Z M560.16,406.088 L580.176,406.088 L570.384,384.344 L570.096,384.344 L560.16,406.088 Z M554.976,417.464 L585.792,417.464 L582.48,410.264 L558.144,410.264 L554.976,417.464 Z M623.808,430.28 L623.808,343.88 L643.536,343.88 L665.568,390.536 L687.744,343.88 L707.184,343.88 L707.184,430.28 L686.16,430.28 L686.16,391.832 L667.296,433.16 L663.84,433.16 L644.976,391.544 L644.976,430.28 L623.808,430.28 Z M629.136,426.248 L639.648,426.248 L639.648,373.688 L642.096,373.688 L665.568,424.376 L689.472,373.688 L691.488,373.688 L691.488,426.248 L701.856,426.248 L701.856,347.912 L691.344,347.912 L667.584,398.456 L663.552,398.456 L639.936,347.912 L629.136,347.912 L629.136,426.248 Z M721.008,430.28 L721.008,343.88 L757.152,343.88 C774.864,343.88 785.232,356.984 785.232,371.528 C785.232,387.656 773.136,399.176 757.152,399.176 L742.032,399.176 L742.032,430.28 L721.008,430.28 Z M726.336,426.248 L736.704,426.248 L736.704,395.144 L757.44,395.144 C770.544,395.144 779.904,384.92 779.904,371.096 C779.904,358.712 771.84,347.912 757.44,347.912 L726.336,347.912 L726.336,426.248 Z M736.704,385.064 L736.704,357.56 L755.712,357.56 C763.92,357.56 768.528,363.896 768.528,371.24 C768.528,379.16 763.92,385.064 755.712,385.064 L736.704,385.064 Z M742.032,381.032 L755.136,381.032 C760.608,381.032 763.632,375.992 763.632,370.952 C763.632,366.2 760.752,361.88 755.136,361.88 L742.032,361.88 L742.032,381.032 Z"/>
  </g>
</svg>
