<svg xmlns="http://www.w3.org/2000/svg" width="721" height="114" viewBox="0 0 721 114">
  <g fill="none" fill-rule="evenodd">
    <path fill="#FFF" d="M6.976 101L6.976 14.6 37.072 14.6C62.56 14.6 82.288 33.32 82.288 57.656 82.288 80.696 64.72 101 37.072 101L6.976 101zM28.144 81.704L36.64 81.704C50.176 81.704 60.544 72.2 60.544 57.656 60.544 44.264 51.472 33.752 36.64 33.752L28.144 33.752 28.144 81.704zM96.688 101L96.688 14.6 153.856 14.6 153.856 33.32 117.856 33.32 117.856 48.872 151.12 48.872 151.12 67.304 117.856 67.304 117.856 82.856 155.44 82.856 155.44 101 96.688 101zM165.664 101L165.664 14.6 186.832 14.6 186.832 82.856 224.416 82.856 224.416 101 165.664 101zM238.384 101L238.384 33.32 219.088 33.32 219.088 14.6 279.28 14.6 279.28 33.32 259.696 33.32 259.696 101 238.384 101zM271.504 101L313.552 11.72 317.296 11.72 359.632 101 336.88 101 332.56 92.072 298.432 92.072 294.256 101 271.504 101zM305.056 76.952L325.36 76.952 315.424 55.064 315.136 55.064 305.056 76.952zM368.92 57.8C368.92 32.024 388.36 11.72 415.72 11.72 432.136 11.72 443.512 17.912 452.728 27.56L438.184 41.384C432.136 35.48 424.36 31.736 415.72 31.736 400.312 31.736 390.376 43.256 390.376 57.8 390.376 72.344 400.312 83.864 415.72 83.864 424.36 83.864 432.136 80.12 438.184 74.216L452.296 88.04C443.656 97.112 431.704 103.88 415.72 103.88 388.36 103.88 368.92 83.576 368.92 57.8zM374.248 57.8C374.248 81.272 391.672 99.848 415.72 99.848 428.392 99.848 437.896 95.816 445.96 88.328L437.752 79.976C432.568 84.584 424.36 87.896 415.72 87.896 397.144 87.896 384.904 74.648 384.904 57.8 384.904 40.952 397.144 27.704 415.72 27.704 423.928 27.704 431.848 30.728 438.04 35.48L446.248 27.56C438.616 19.784 428.68 15.752 415.72 15.752 391.672 15.752 374.248 34.328 374.248 57.8zM455.464 101L497.512 11.72 501.256 11.72 543.592 101 520.84 101 516.52 92.072 482.392 92.072 478.216 101 455.464 101zM462.952 96.968L474.328 96.968 498.52 44.84 500.536 44.84 524.44 96.968 536.104 96.968 499.384 19.496 462.952 96.968zM489.16 76.808L509.176 76.808 499.384 55.064 499.096 55.064 489.16 76.808zM483.976 88.184L514.792 88.184 511.48 80.984 487.144 80.984 483.976 88.184zM552.808 101L552.808 14.6 572.536 14.6 594.568 61.256 616.744 14.6 636.184 14.6 636.184 101 615.16 101 615.16 62.552 596.296 103.88 592.84 103.88 573.976 62.264 573.976 101 552.808 101zM558.136 96.968L568.648 96.968 568.648 44.408 571.096 44.408 594.568 95.096 618.472 44.408 620.488 44.408 620.488 96.968 630.856 96.968 630.856 18.632 620.344 18.632 596.584 69.176 592.552 69.176 568.936 18.632 558.136 18.632 558.136 96.968zM650.008 101L650.008 14.6 686.152 14.6C703.864 14.6 714.232 27.704 714.232 42.248 714.232 58.376 702.136 69.896 686.152 69.896L671.032 69.896 671.032 101 650.008 101zM655.336 96.968L665.704 96.968 665.704 65.864 686.44 65.864C699.544 65.864 708.904 55.64 708.904 41.816 708.904 29.432 700.84 18.632 686.44 18.632L655.336 18.632 655.336 96.968zM665.704 55.784L665.704 28.28 684.712 28.28C692.92 28.28 697.528 34.616 697.528 41.96 697.528 49.88 692.92 55.784 684.712 55.784L665.704 55.784zM671.032 51.752L684.136 51.752C689.608 51.752 692.632 46.712 692.632 41.672 692.632 36.92 689.752 32.6 684.136 32.6L671.032 32.6 671.032 51.752z"/>
  </g>
</svg>
