<svg xmlns="http://www.w3.org/2000/svg" width="866" height="147" viewBox="0 0 866 147">
  <g fill="none" fill-rule="evenodd">
    <path fill="#FFF" d="M520 80.08C520 54.304 539.44 34 566.8 34 583.216 34 594.592 40.192 603.808 49.84L589.264 63.664C583.216 57.76 575.44 54.016 566.8 54.016 551.392 54.016 541.456 65.536 541.456 80.08 541.456 94.624 551.392 106.144 566.8 106.144 575.44 106.144 583.216 102.4 589.264 96.496L603.376 110.32C594.736 119.392 582.784 126.16 566.8 126.16 539.44 126.16 520 105.856 520 80.08zM606.544 123.28L648.592 34 652.336 34 694.672 123.28 671.92 123.28 667.6 114.352 633.472 114.352 629.296 123.28 606.544 123.28zM640.096 99.232L660.4 99.232 650.464 77.344 650.176 77.344 640.096 99.232zM703.888 123.28L703.888 36.88 723.616 36.88 745.648 83.536 767.824 36.88 787.264 36.88 787.264 123.28 766.24 123.28 766.24 84.832 747.376 126.16 743.92 126.16 725.056 84.544 725.056 123.28 703.888 123.28zM801.088 123.28L801.088 36.88 837.232 36.88C854.944 36.88 865.312 49.984 865.312 64.528 865.312 80.656 853.216 92.176 837.232 92.176L822.112 92.176 822.112 123.28 801.088 123.28zM822.112 74.032L835.216 74.032C840.688 74.032 843.712 68.992 843.712 63.952 843.712 59.2 840.832 54.88 835.216 54.88L822.112 54.88 822.112 74.032zM164 125.28L164 38.88 194.096 38.88C219.584 38.88 239.312 57.6 239.312 81.936 239.312 104.976 221.744 125.28 194.096 125.28L164 125.28zM185.168 105.984L193.664 105.984C207.2 105.984 217.568 96.48 217.568 81.936 217.568 68.544 208.496 58.032 193.664 58.032L185.168 58.032 185.168 105.984zM253.712 125.28L253.712 38.88 310.88 38.88 310.88 57.6 274.88 57.6 274.88 73.152 308.144 73.152 308.144 91.584 274.88 91.584 274.88 107.136 312.464 107.136 312.464 125.28 253.712 125.28zM322.688 125.28L322.688 38.88 343.856 38.88 343.856 107.136 381.44 107.136 381.44 125.28 322.688 125.28zM395.408 125.28L395.408 57.6 376.112 57.6 376.112 38.88 436.304 38.88 436.304 57.6 416.72 57.6 416.72 125.28 395.408 125.28zM428.528 125.28L470.576 36 474.32 36 516.656 125.28 493.904 125.28 489.584 116.352 455.456 116.352 451.28 125.28 428.528 125.28zM462.08 101.232L482.384 101.232 472.448 79.344 472.16 79.344 462.08 101.232zM0 139.129704L56.0457669 17.6999328 70.2245337 0 139 147 23.5245317 147 0 139.129704zM34 117L90 117 62.6131387 53 34 117z"/>
  </g>
</svg>
