<svg xmlns="http://www.w3.org/2000/svg" width="880" height="167" viewBox="0 0 880 167" style="background:#fff">
  <g fill="none" fill-rule="evenodd">
    <path fill="#CA12BE" d="M171 134.28L171 47.88 201.096 47.88C226.584 47.88 246.312 66.6 246.312 90.936 246.312 113.976 228.744 134.28 201.096 134.28L171 134.28zM192.168 114.984L200.664 114.984C214.2 114.984 224.568 105.48 224.568 90.936 224.568 77.544 215.496 67.032 200.664 67.032L192.168 67.032 192.168 114.984zM260.712 134.28L260.712 47.88 317.88 47.88 317.88 66.6 281.88 66.6 281.88 82.152 315.144 82.152 315.144 100.584 281.88 100.584 281.88 116.136 319.464 116.136 319.464 134.28 260.712 134.28zM329.688 134.28L329.688 47.88 350.856 47.88 350.856 116.136 388.44 116.136 388.44 134.28 329.688 134.28zM402.408 134.28L402.408 66.6 383.112 66.6 383.112 47.88 443.304 47.88 443.304 66.6 423.72 66.6 423.72 134.28 402.408 134.28zM435.528 134.28L477.576 45 481.32 45 523.656 134.28 500.904 134.28 496.584 125.352 462.456 125.352 458.28 134.28 435.528 134.28zM469.08 110.232L489.384 110.232 479.448 88.344 479.16 88.344 469.08 110.232zM11 142.718638L63.0136973 30.375448 76.172409 14 140 150 32.8321193 150 11 142.718638zM43 122L95 122 69.5693431 63 43 122zM523.92 89.08C523.92 63.304 543.36 43 570.72 43 587.136 43 598.512 49.192 607.728 58.84L593.184 72.664C587.136 66.76 579.36 63.016 570.72 63.016 555.312 63.016 545.376 74.536 545.376 89.08 545.376 103.624 555.312 115.144 570.72 115.144 579.36 115.144 587.136 111.4 593.184 105.496L607.296 119.32C598.656 128.392 586.704 135.16 570.72 135.16 543.36 135.16 523.92 114.856 523.92 89.08zM529.248 89.08C529.248 112.552 546.672 131.128 570.72 131.128 583.392 131.128 592.896 127.096 600.96 119.608L592.752 111.256C587.568 115.864 579.36 119.176 570.72 119.176 552.144 119.176 539.904 105.928 539.904 89.08 539.904 72.232 552.144 58.984 570.72 58.984 578.928 58.984 586.848 62.008 593.04 66.76L601.248 58.84C593.616 51.064 583.68 47.032 570.72 47.032 546.672 47.032 529.248 65.608 529.248 89.08zM610.464 132.28L652.512 43 656.256 43 698.592 132.28 675.84 132.28 671.52 123.352 637.392 123.352 633.216 132.28 610.464 132.28zM617.952 128.248L629.328 128.248 653.52 76.12 655.536 76.12 679.44 128.248 691.104 128.248 654.384 50.776 617.952 128.248zM644.16 108.088L664.176 108.088 654.384 86.344 654.096 86.344 644.16 108.088zM638.976 119.464L669.792 119.464 666.48 112.264 642.144 112.264 638.976 119.464zM707.808 132.28L707.808 45.88 727.536 45.88 749.568 92.536 771.744 45.88 791.184 45.88 791.184 132.28 770.16 132.28 770.16 93.832 751.296 135.16 747.84 135.16 728.976 93.544 728.976 132.28 707.808 132.28zM713.136 128.248L723.648 128.248 723.648 75.688 726.096 75.688 749.568 126.376 773.472 75.688 775.488 75.688 775.488 128.248 785.856 128.248 785.856 49.912 775.344 49.912 751.584 100.456 747.552 100.456 723.936 49.912 713.136 49.912 713.136 128.248zM805.008 132.28L805.008 45.88 841.152 45.88C858.864 45.88 869.232 58.984 869.232 73.528 869.232 89.656 857.136 101.176 841.152 101.176L826.032 101.176 826.032 132.28 805.008 132.28zM810.336 128.248L820.704 128.248 820.704 97.144 841.44 97.144C854.544 97.144 863.904 86.92 863.904 73.096 863.904 60.712 855.84 49.912 841.44 49.912L810.336 49.912 810.336 128.248zM820.704 87.064L820.704 59.56 839.712 59.56C847.92 59.56 852.528 65.896 852.528 73.24 852.528 81.16 847.92 87.064 839.712 87.064L820.704 87.064zM826.032 83.032L839.136 83.032C844.608 83.032 847.632 77.992 847.632 72.952 847.632 68.2 844.752 63.88 839.136 63.88L826.032 63.88 826.032 83.032z"/>
  </g>
</svg>
