<svg xmlns="http://www.w3.org/2000/svg" width="854" height="127" viewBox="0 0 854 127">
  <g fill="none" fill-rule="evenodd">
    <path fill="#FFF" d="M154 115.28L154 28.88 184.096 28.88C209.584 28.88 229.312 47.6 229.312 71.936 229.312 94.976 211.744 115.28 184.096 115.28L154 115.28zM175.168 95.984L183.664 95.984C197.2 95.984 207.568 86.48 207.568 71.936 207.568 58.544 198.496 48.032 183.664 48.032L175.168 48.032 175.168 95.984zM243.712 115.28L243.712 28.88 300.88 28.88 300.88 47.6 264.88 47.6 264.88 63.152 298.144 63.152 298.144 81.584 264.88 81.584 264.88 97.136 302.464 97.136 302.464 115.28 243.712 115.28zM312.688 115.28L312.688 28.88 333.856 28.88 333.856 97.136 371.44 97.136 371.44 115.28 312.688 115.28zM385.408 115.28L385.408 47.6 366.112 47.6 366.112 28.88 426.304 28.88 426.304 47.6 406.72 47.6 406.72 115.28 385.408 115.28zM418.528 115.28L460.576 26 464.32 26 506.656 115.28 483.904 115.28 479.584 106.352 445.456 106.352 441.28 115.28 418.528 115.28zM452.08 91.232L472.384 91.232 462.448 69.344 462.16 69.344 452.08 91.232zM0 120.200493L47.9816278 15.2917787 60.1202842 0 119 127 20.139707 127 0 120.200493zM29 101L77 101 53.5255474 46 29 101zM507.92 69.08C507.92 43.304 527.36 23 554.72 23 571.136 23 582.512 29.192 591.728 38.84L577.184 52.664C571.136 46.76 563.36 43.016 554.72 43.016 539.312 43.016 529.376 54.536 529.376 69.08 529.376 83.624 539.312 95.144 554.72 95.144 563.36 95.144 571.136 91.4 577.184 85.496L591.296 99.32C582.656 108.392 570.704 115.16 554.72 115.16 527.36 115.16 507.92 94.856 507.92 69.08zM513.248 69.08C513.248 92.552 530.672 111.128 554.72 111.128 567.392 111.128 576.896 107.096 584.96 99.608L576.752 91.256C571.568 95.864 563.36 99.176 554.72 99.176 536.144 99.176 523.904 85.928 523.904 69.08 523.904 52.232 536.144 38.984 554.72 38.984 562.928 38.984 570.848 42.008 577.04 46.76L585.248 38.84C577.616 31.064 567.68 27.032 554.72 27.032 530.672 27.032 513.248 45.608 513.248 69.08zM594.464 112.28L636.512 23 640.256 23 682.592 112.28 659.84 112.28 655.52 103.352 621.392 103.352 617.216 112.28 594.464 112.28zM601.952 108.248L613.328 108.248 637.52 56.12 639.536 56.12 663.44 108.248 675.104 108.248 638.384 30.776 601.952 108.248zM628.16 88.088L648.176 88.088 638.384 66.344 638.096 66.344 628.16 88.088zM622.976 99.464L653.792 99.464 650.48 92.264 626.144 92.264 622.976 99.464zM691.808 112.28L691.808 25.88 711.536 25.88 733.568 72.536 755.744 25.88 775.184 25.88 775.184 112.28 754.16 112.28 754.16 73.832 735.296 115.16 731.84 115.16 712.976 73.544 712.976 112.28 691.808 112.28zM697.136 108.248L707.648 108.248 707.648 55.688 710.096 55.688 733.568 106.376 757.472 55.688 759.488 55.688 759.488 108.248 769.856 108.248 769.856 29.912 759.344 29.912 735.584 80.456 731.552 80.456 707.936 29.912 697.136 29.912 697.136 108.248zM789.008 112.28L789.008 25.88 825.152 25.88C842.864 25.88 853.232 38.984 853.232 53.528 853.232 69.656 841.136 81.176 825.152 81.176L810.032 81.176 810.032 112.28 789.008 112.28zM794.336 108.248L804.704 108.248 804.704 77.144 825.44 77.144C838.544 77.144 847.904 66.92 847.904 53.096 847.904 40.712 839.84 29.912 825.44 29.912L794.336 29.912 794.336 108.248zM804.704 67.064L804.704 39.56 823.712 39.56C831.92 39.56 836.528 45.896 836.528 53.24 836.528 61.16 831.92 67.064 823.712 67.064L804.704 67.064zM810.032 63.032L823.136 63.032C828.608 63.032 831.632 57.992 831.632 52.952 831.632 48.2 828.752 43.88 823.136 43.88L810.032 43.88 810.032 63.032z"/>
  </g>
</svg>
