<svg xmlns="http://www.w3.org/2000/svg" xmlns:xlink="http://www.w3.org/1999/xlink" version="1.1" x="0px" y="0px" viewBox="0 0 100 100" enable-background="new 0 0 100 100" xml:space="preserve"><path d="M21.725,44.243c1.73-2.72,4.688-4.344,7.915-4.344c0.354,0,0.712,0.02,1.084,0.062c2.496,0.292,4.743,1.589,6.265,3.506  l13.05-19.728c1.744-2.631,4.664-4.205,7.819-4.205l0.184,0.003c3.228,0.062,6.155,1.747,7.831,4.505l26.962,44.361  c2.815-6.072,4.287-12.701,4.287-19.491c0-25.6-20.827-46.426-46.426-46.426c-25.601,0-46.429,20.826-46.429,46.426  c0,5.993,1.173,11.902,3.396,17.403L21.725,44.243z"></path><path d="M95.528,84.866L60.531,27.29c-0.556-0.916-1.54-1.482-2.611-1.501c-1.111-0.022-2.076,0.509-2.668,1.401L35.596,56.903  l-3.007-8.654c-0.394-1.131-1.399-1.94-2.59-2.08c-1.196-0.134-2.356,0.415-2.999,1.426L3.293,84.812  c-0.928,1.455-0.5,3.386,0.957,4.313c1.456,0.931,3.386,0.5,4.314-0.956l20.239-31.77l2.961,8.526  c0.389,1.122,1.382,1.927,2.562,2.074c1.187,0.14,2.343-0.386,2.997-1.377l7.283-11.009l5.199,7.464  c0.567,0.813,1.485,1.309,2.478,1.337c0.998,0.032,1.935-0.417,2.549-1.196l2.457-3.142l6.339,9.187  c0.541,0.784,1.409,1.279,2.361,1.345c0.07,0.006,0.142,0.007,0.212,0.007c0.876,0,1.716-0.368,2.31-1.02l5.888-6.462l15.789,25.979  c0.59,0.969,1.618,1.503,2.674,1.503c0.554,0,1.113-0.146,1.619-0.455C95.957,88.264,96.427,86.34,95.528,84.866z M66.538,61.478  l-6.516-9.448c-0.566-0.817-1.486-1.319-2.479-1.35c-1.011-0.036-1.942,0.413-2.553,1.199l-2.475,3.155l-4.2-6.029l9.434-14.259  l13.262,21.821L66.538,61.478z"></path></svg>