<svg xmlns="http://www.w3.org/2000/svg" xmlns:xlink="http://www.w3.org/1999/xlink" version="1.1" x="0px" y="0px" viewBox="0 0 100 100" enable-background="new 0 0 100 100" xml:space="preserve"><path d="M9.114,87.156l16.523-25.938c0.663-1.041,1.856-1.604,3.084-1.465c1.225,0.142,2.258,0.974,2.664,2.137l3.091,8.899  L54.69,40.232c0.605-0.917,1.589-1.476,2.741-1.44c1.101,0.022,2.114,0.604,2.685,1.544l29.602,48.698  c0.037-0.051,0.083-0.085,0.118-0.139c5.174-7.813,7.908-16.917,7.908-26.325c0-26.324-21.417-47.739-47.742-47.739  S2.26,36.247,2.26,62.571c0,8.539,2.282,16.92,6.599,24.235C8.933,86.934,9.025,87.043,9.114,87.156z"></path></svg>