<svg xmlns="http://www.w3.org/2000/svg" xmlns:xlink="http://www.w3.org/1999/xlink" version="1.1" x="0px" y="0px" viewBox="0 0 100 100" enable-background="new 0 0 100 100" xml:space="preserve"><path d="M63.52,34.098V21.299V10.634V9.186c0-1.608-1.304-2.912-2.911-2.912h-17.39c-1.062,0-2.041,0.579-2.552,1.51  c-0.512,0.932-0.476,2.068,0.095,2.964l2.857,4.494l-2.857,4.494c-0.571,0.896-0.607,2.033-0.095,2.964  c0.512,0.931,1.49,1.51,2.552,1.51h14.478v10.725L42.832,62.903l-12.13-16.649c-0.57-0.782-1.472-1.238-2.458-1.195  c-0.966,0.034-1.853,0.547-2.365,1.368L2.105,84.525c-0.851,1.364-0.435,3.16,0.929,4.012c0.479,0.299,1.012,0.441,1.538,0.441  c0.972,0,1.921-0.485,2.473-1.37l21.49-34.439l12.296,16.876v0.001l4.898,7.012c0.566,0.812,1.47,1.244,2.39,1.244  c0.575,0,1.158-0.17,1.665-0.523c1.317-0.922,1.64-2.737,0.72-4.055l-3.878-5.552l14.395-27.083L90.096,87.61  c0.854,1.364,2.649,1.777,4.013,0.926s1.777-2.649,0.926-4.013L63.52,34.098z M48.521,18.387l1.005-1.583  c0.606-0.953,0.606-2.171,0-3.125l-1.005-1.583h9.176v6.29H48.521z"></path><path d="M97.872,55.375L83.44,32.964c-0.516-0.8-1.389-1.298-2.34-1.333c-0.969-0.045-1.859,0.396-2.433,1.156l-5.615,7.442  c-0.968,1.284-0.712,3.11,0.571,4.079c1.284,0.967,3.109,0.712,4.078-0.571l3.102-4.112l12.173,18.902  c0.557,0.864,1.493,1.335,2.45,1.335c0.54,0,1.086-0.15,1.574-0.464C98.353,58.528,98.743,56.727,97.872,55.375z"></path></svg>